<?xml version="1.0" standalone="no"?><!DOCTYPE svg PUBLIC "-//W3C//DTD SVG 1.1//EN" "http://www.w3.org/Graphics/SVG/1.1/DTD/svg11.dtd"><svg t="1607758002530" class="icon" viewBox="0 0 1024 1024" version="1.1" xmlns="http://www.w3.org/2000/svg" p-id="4183" xmlns:xlink="http://www.w3.org/1999/xlink" width="200" height="200"><defs><style type="text/css"></style></defs><path d="M822.72 136.576c-18.816-14.528-44.8-27.264-77.376-37.824-62.784-20.48-145.664-31.744-233.344-31.744s-170.56 11.264-233.344 31.744c-32.512 10.56-58.56 23.296-77.376 37.76-16.96 13.184-37.312 35.2-37.312 65.472v620.032c0 30.336 20.288 52.288 37.312 65.408 18.816 14.528 44.8 27.264 77.376 37.824 62.784 20.48 145.664 31.744 233.344 31.744s170.56-11.264 233.344-31.744c32.512-10.56 58.56-23.296 77.376-37.76 16.96-13.184 37.248-35.2 37.248-65.472V201.984c0-30.336-20.224-52.288-37.248-65.408z m-524.224 23.04c56.512-18.496 132.352-28.608 213.504-28.608 81.152 0 156.992 10.112 213.504 28.608 57.984 18.88 70.464 38.528 70.464 42.368 0 3.84-12.48 23.552-70.4 42.432-56.576 18.432-132.48 28.608-213.568 28.608-81.152 0-156.992-10.176-213.504-28.608-57.984-18.88-70.464-38.528-70.464-42.432 0-3.84 12.48-23.488 70.4-42.368z m427.008 704.768c-56.512 18.496-132.352 28.608-213.504 28.608-81.152 0-156.992-10.112-213.504-28.608-57.984-18.88-70.464-38.528-70.464-42.368V705.28c16.256 8.32 33.152 15.36 50.56 20.928 62.848 20.48 145.728 31.744 233.408 31.744 87.68 0 170.56-11.264 233.344-31.744 17.472-5.568 34.368-12.544 50.624-20.928v116.672c0 3.84-12.48 23.488-70.4 42.368z m0-198.976c-56.512 18.432-132.352 28.608-213.504 28.608-81.152 0-156.992-10.176-213.504-28.608-57.984-18.88-70.464-38.528-70.464-42.432V507.328c16.256 8.384 33.152 15.36 50.56 20.928 62.848 20.48 145.728 31.744 233.408 31.744 87.68 0 170.56-11.264 233.344-31.744 17.472-5.504 34.368-12.544 50.624-20.928v115.648c0 3.84-12.48 23.552-70.4 42.432z m0-198.016c-56.512 18.432-132.352 28.608-213.504 28.608-81.152 0-156.992-10.176-213.504-28.608-57.984-18.88-70.464-38.528-70.464-42.368V284.288c16.256 8.448 33.152 15.424 50.56 20.992 62.848 20.48 145.728 31.744 233.408 31.744 87.68 0 170.56-11.264 233.344-31.744 17.472-5.568 34.368-12.544 50.624-20.928V424.96c0 3.84-12.48 23.488-70.4 42.368z" p-id="4184"></path></svg>